PathFileType	4	(X/Y/Z)	regression/subject01/trials/walk2/markers.trc
DataRate	CameraRate	NumFrames	NumMarkers	Units	OrigDataRate	OrigDataStartFrame	OrigNumFrames
200.00000000000426	200.00000000000426	4	64	m	200.00000000000426	139	223
Frame#	Time	CLAV			C7			RACR			RASH			RPSH			RLEL			RMEL			RUA1			RUA2			RUA3			RFAsuperior			RFAradius			RFAulna			RASI			RPSI			RCAL			RTOE			RMT5			RTH1			RTH2			RTH3			RTB1			RTB2			RTB3			RLFC			RMFC			RLMAL			RMMAL			RHJC			RKJC			REJC			RAJC			RSJC			LACR			LASH			LPSH			LLEL			LMEL			LUA1			LUA2			LUA3			LFAsuperior			LFAradius			LFAulna			LASI			LPSI			LCAL			LTOE			LMT5			LTH1			LTH2			LTH3			LTB1			LTB2			LTB3			LLFC			LMFC			LLMAL			LMMAL			LHJC			LKJC			LEJC			LAJC			LSJC			
		X1	Y1	Z1	X2	Y2	Z2	X3	Y3	Z3	X4	Y4	Z4	X5	Y5	Z5	X6	Y6	Z6	X7	Y7	Z7	X8	Y8	Z8	X9	Y9	Z9	X10	Y10	Z10	X11	Y11	Z11	X12	Y12	Z12	X13	Y13	Z13	X14	Y14	Z14	X15	Y15	Z15	X16	Y16	Z16	X17	Y17	Z17	X18	Y18	Z18	X19	Y19	Z19	X20	Y20	Z20	X21	Y21	Z21	X22	Y22	Z22	X23	Y23	Z23	X24	Y24	Z24	X25	Y25	Z25	X26	Y26	Z26	X27	Y27	Z27	X28	Y28	Z28	X29	Y29	Z29	X30	Y30	Z30	X31	Y31	Z31	X32	Y32	Z32	X33	Y33	Z33	X34	Y34	Z34	X35	Y35	Z35	X36	Y36	Z36	X37	Y37	Z37	X38	Y38	Z38	X39	Y39	Z39	X40	Y40	Z40	X41	Y41	Z41	X42	Y42	Z42	X43	Y43	Z43	X44	Y44	Z44	X45	Y45	Z45	X46	Y46	Z46	X47	Y47	Z47	X48	Y48	Z48	X49	Y49	Z49	X50	Y50	Z50	X51	Y51	Z51	X52	Y52	Z52	X53	Y53	Z53	X54	Y54	Z54	X55	Y55	Z55	X56	Y56	Z56	X57	Y57	Z57	X58	Y58	Z58	X59	Y59	Z59	X60	Y60	Z60	X61	Y61	Z61	X62	Y62	Z62	X63	Y63	Z63	X64	Y64	Z64	

140	4.075	1.861671468111105	1.440949690416064	-0.5341610576776106	1.751354561769839	1.517510568928748	-0.513543491754946	1.855013399237886	1.490869430824411	-0.3811612481599078	1.904322582251067	1.429132075749614	-0.3440662118787861	1.807899901954293	1.448307362456074	-0.3264869072238505	1.798569953705206	1.118385885711092	-0.2269660612816111	1.787990560471229	1.095457947498392	-0.3128429950474889	1.844490456881789	1.384486326983376	-0.3039056060530808	1.804303733229482	1.210369481761507	-0.2679437348409608	1.856990509581438	1.284560379167388	-0.2810065038929671	1.873904476018949	1.05980642754926	-0.2760599376955812	2.024691149911975	0.9774860182997938	-0.2755783393076467	1.991828750976927	0.9268130627832623	-0.259961225290357	1.842062745358511	0.9960675683699425	-0.3821984946893838	1.690057988780613	1.038986435275845	-0.4772897245896421	1.293643872992952	0.2310373709239952	-0.4319713749652921	1.463778842848836	0.0416330424251202	-0.4534052675967273	1.385248060622638	0.06546444489875175	-0.3646858954075332	1.759278284439163	0.7561490956458735	-0.3546009442977027	1.833673512925193	0.6588998471577152	-0.401395436568899	1.728960401146671	0.6071464714083736	-0.345954845701468	1.568058198271211	0.3666040183941465	-0.3607368696458746	1.536029878330659	0.2731504507949166	-0.4244050427745605	1.452202206920502	0.2437988491926714	-0.3622603639648462	1.703579319741137	0.5035783840212529	-0.3488940977993711	1.719169229941108	0.4904369428479169	-0.4608204399284901	1.354423054377491	0.1839814512743735	-0.3717381961602284	1.369829577572	0.1749065072703631	-0.4748752300424964	1.768160598060687	0.9002444903476643	-0.4442923051231305	1.714890487245275	0.4906397301130436	-0.4065281627240296	1.797932726878003	1.100604294416408	-0.2751342200428565	1.344120214266943	0.1801362367155755	-0.4330243076538897	1.859153377666043	1.438114738807255	-0.3358311866131815	1.802115667614065	1.49357995678736	-0.6742624986582584	1.835148625512225	1.432676609701162	-0.7273524625304753	1.731012130791709	1.453385919344139	-0.708366813503145	1.674041920795258	1.121458049855351	-0.7612858992803896	1.672156447168425	1.114690385733158	-0.6720496753858877	1.764280469114852	1.38641219428931	-0.7390567123547206	1.697201721801714	1.21692780129807	-0.738434683182719	1.760414937751554	1.283368929277359	-0.7447976571474286	1.698373533602492	1.028265641983669	-0.7151401018791644	1.735880102134487	0.8608425129784432	-0.7238725660664873	1.674180892147904	0.851640197306916	-0.7235488252924779	1.860092500024121	1.007062562007989	-0.6468443104089582	1.696373680024483	1.04283790116288	-0.5699932190112766	1.876619252370396	0.04289709512110611	-0.5685291895371805	2.131045626904974	0.05512256031001662	-0.5486023905616079	2.062361692913711	0.01568578609343559	-0.639889873566879	1.857312067930094	0.7748535298652975	-0.6764595990887831	1.966748010463793	0.736588648578461	-0.6152929071577625	1.911888272548587	0.6328350859115697	-0.6695378533308949	1.955522635635984	0.3412869807720111	-0.6419176863956015	2.002089579337877	0.2566533403734815	-0.5749722943813665	1.973706656217723	0.1734682493920541	-0.6384168089480006	1.945282346785707	0.5324243299539456	-0.6560581235450359	1.953891637839593	0.5376104834838635	-0.5427345480734086	1.955280584777606	0.06029834859651684	-0.6293743251033321	1.966170113032893	0.06670497370582146	-0.5254640914747953	1.779003938182939	0.9068570293350499	-0.6034539046568077	1.953719750283046	0.5337423140014252	-0.5972062146606517	1.677543335796151	1.112058892492502	-0.7109256123539934	1.947974724035922	0.05029677570800983	-0.5683537171914209	1.789979420927201	1.441659272758803	-0.7191174372648708	
141	4.08	1.868193988772929	1.441454439722294	-0.5345590395954003	1.757696891784009	1.517838249630973	-0.5142519691820484	1.861053853328589	1.491407435912723	-0.3815918250903107	1.910368308744348	1.429762694901455	-0.344350065592972	1.813868420702184	1.448783154113146	-0.3270280972502555	1.803532634622984	1.118807729359444	-0.2283628393827956	1.79303446835016	1.096147638526517	-0.3143207968577443	1.850301649852983	1.384995741954291	-0.3044840070837533	1.80958376198488	1.210889116855742	-0.2690743836269347	1.862492916089469	1.284972924411651	-0.2818428003460458	1.878289797268009	1.059253127574888	-0.2772725729829272	2.027874594824959	0.9747726606371658	-0.2763021166162709	1.994239164919825	0.9245835177079343	-0.2607686777857475	1.849194171239448	0.9959845318062527	-0.3830894524431516	1.69716528888692	1.039106116243413	-0.4780503130595458	1.303282559671582	0.2391658306610528	-0.4300354488424025	1.465557024946158	0.04316875428342228	-0.4530889376581937	1.38824717056408	0.06958584828527486	-0.3640301365070289	1.768842377919415	0.7566996898681844	-0.3549000487249436	1.844442313013529	0.6602031670257936	-0.4013205372296216	1.740653568540428	0.6073451337210535	-0.3451882681557992	1.579008320025869	0.3685387930834167	-0.3591968288034099	1.545226870504861	0.2757753878248198	-0.4229681637264879	1.460942499655605	0.2478574153035782	-0.3607806428249672	1.716722936478436	0.5034136931327153	-0.347371780826222	1.732122593565273	0.4897649754836315	-0.4592637461620021	1.362085085900089	0.1898372510083746	-0.3702455965806603	1.377221825709821	0.1806363547613763	-0.4734114142715767	1.775396421431312	0.9003193097946887	-0.4455497468053216	1.7280205592532	0.4899584248549162	-0.4049575867699894	1.802927617532965	1.101162045908525	-0.2765813666863099	1.351653210383464	0.1862698303303305	-0.4315266795857093	1.865162936190996	1.438672829019171	-0.3362355895228265	1.808916923696293	1.493945242644209	-0.6748309086230981	1.8421892469175	1.433081365242629	-0.7278165594435402	1.737969367831962	1.453623461191256	-0.7091088336334063	1.682699044631138	1.121312125444911	-0.7627395451081033	1.680416942227714	1.11444661482391	-0.6735200589184194	1.771630831129756	1.386648876054172	-0.7398184383892111	1.70531712521602	1.216862601371078	-0.7396840277364545	1.768258928973611	1.28359500085644	-0.7456788416805081	1.707436015856101	1.028233712465535	-0.7165810706085809	1.746112913140732	0.8610759797863519	-0.7252927157871617	1.684476950436921	0.85145410291025	-0.7252059878726226	1.867261791594165	1.007972135942761	-0.6476895812376515	1.703494244204847	1.043305286331086	-0.5707378036853435	1.876977643634751	0.04332696972888455	-0.5686746327117927	2.131436291551668	0.054615330323089	-0.5486075255287018	2.062658347486562	0.01539419458895278	-0.6399171275673984	1.864180684230543	0.7752087392119755	-0.6775335579899756	1.973423084287219	0.7365996902618224	-0.6162373082764652	1.91825454295514	0.6330050966489125	-0.6704728963804988	1.959455094305921	0.3412326260538015	-0.6424459886148263	2.004860158258594	0.2561728521465892	-0.5752430580604964	1.975700510078178	0.1732217482522058	-0.6386416810402291	1.951285144124306	0.5324867237528959	-0.6569000073005541	1.959802447118558	0.5377116911334674	-0.5435712637968161	1.955950652755667	0.06028490003540377	-0.6294806483765689	1.966623501521798	0.06672572186929199	-0.5255500492395949	1.786262534494936	0.9075288182607698	-0.604683869599747	1.959738322570623	0.5337644454873869	-0.5980293287213891	1.686001761109603	1.111878435986038	-0.7123722925276276	1.948360412892888	0.05046164132320585	-0.5684657854458132	1.796983874364148	1.441991499360346	-0.7197020833733946	
142	4.085	1.874679871610082	1.441983129081669	-0.5349275072942402	1.764005269663921	1.518193850392937	-0.5149392505120145	1.867043263639968	1.491960226254063	-0.3819921482272719	1.916355252737401	1.430403562352976	-0.3446017334344391	1.819778136729228	1.449272825737684	-0.327546868706084	1.808451626993615	1.1192295890019	-0.2297785330189399	1.798048775554734	1.096846175730975	-0.3158205294927374	1.856054741742646	1.385513248441579	-0.3050433135510023	1.814817209218021	1.211412293636234	-0.2702118884273046	1.867943161625339	1.285393619220126	-0.2826705497206575	1.88261912338194	1.058707677494908	-0.2785026695073562	2.03096023072877	0.972068920476695	-0.2770382948340337	1.996551535873188	0.9223758000752047	-0.2616040654112841	1.856248130899742	0.9959420329801484	-0.3839615033982278	1.704209152727255	1.039265887190892	-0.4788140728696375	1.313306791549292	0.247291178237092	-0.4280453897794996	1.46759127547879	0.04513812110491859	-0.452738686157926	1.391621073205004	0.07406076120788251	-0.363306277275474	1.778454840773516	0.7573032105564809	-0.3552213442885454	1.855263185303176	0.6616267313109446	-0.4013546336760455	1.752481017927726	0.6076186039675596	-0.3444700571549046	1.59020628584688	0.3705813105097993	-0.3576797558322716	1.554685255064538	0.2785378695912025	-0.4215489988276856	1.469998675856058	0.2520335103876286	-0.3592893942657994	1.730056250251832	0.503338993295233	-0.3459122131609503	1.745202578963333	0.4892168944277117	-0.4577800096383062	1.370106622329385	0.1958057388304609	-0.3687089705199897	1.384937649826614	0.1864987144428093	-0.4719096645296477	1.782554187734412	0.900433991920266	-0.4467838543946999	1.74130488990272	0.4893886200499464	-0.4034559116445954	1.807887122626876	1.101725275561645	-0.2780490510527692	1.359530226350453	0.192522357178252	-0.4299811575576903	1.871113702743373	1.439242868785543	-0.3366123820524412	1.815700366645258	1.494345830915296	-0.6753725767228165	1.84921454128278	1.433523199217666	-0.7282530630055359	1.744911255993953	1.45390200367315	-0.7098338090989124	1.691342633299243	1.121218834153232	-0.7641915045460902	1.688646097645776	1.114252145779105	-0.674991426676251	1.77896892698222	1.386927499556612	-0.7405616761109313	1.713416937433267	1.216846027202193	-0.740927950498807	1.776088182054042	1.283865595998674	-0.746541691815761	1.716475130569663	1.028256722006481	-0.7180151465355584	1.756321429322912	0.8613721701839147	-0.726693947050405	1.694752457423846	0.8513314354752718	-0.7268529457243933	1.874383758068266	1.008886860873041	-0.6485118770027825	1.710561930334862	1.043800365762166	-0.5714841346161577	1.877314029940529	0.04371431488788001	-0.5688372505197283	2.131796303350447	0.05418794210909499	-0.5486284646022376	2.062944415240594	0.01513133193429241	-0.6399528600720428	1.870918573686165	0.775540187780973	-0.678576132895034	1.979943200500735	0.7365303937809127	-0.6171460296887415	1.924412113116246	0.6331244335646675	-0.6713716004204204	1.963197684182425	0.3411409575930043	-0.6429574033628901	2.007493027283948	0.2556852353234291	-0.5755166074327851	1.977586609109692	0.1729675001671293	-0.6388722587799817	1.957023968422408	0.5324824822633857	-0.6577022276112521	1.965448877499402	0.5377450046983174	-0.5443683156377116	1.956573829884836	0.06026775835271475	-0.6296016399721081	1.967050135466433	0.06674171025838677	-0.5256531032256246	1.793461201022494	0.908219187796191	-0.6058880537399476	1.965482023854435	0.5337222725929115	-0.598813997355703	1.694436193305705	1.11174863674648	-0.7138178227964643	1.948719633217507	0.05061694896744362	-0.5685926642039452	1.803972991288752	1.442362505650232	-0.720263711623538	
143	4.09	1.88112665980733	1.442523054576233	-0.5352695590231259	1.77028168096514	1.518571206751983	-0.5156089083714953	1.872983579221207	1.492518824248169	-0.3823664350213931	1.922282382248691	1.431043772386416	-0.3448246679291408	1.825629288248388	1.449771152599665	-0.3280460655273661	1.813318481023043	1.119647403282237	-0.2312094495281974	1.803029171572757	1.097546808913337	-0.3173381642782219	1.861747265936114	1.386031793791193	-0.3055857918149158	1.819998420319752	1.211933549885394	-0.2713551025490221	1.873336823450119	1.285816041109677	-0.2834882735093747	1.886886448673782	1.058165417386644	-0.2797416772546792	2.033941960171295	0.9693718829345048	-0.2777699984192162	1.998759665485312	0.9201872807620604	-0.2624513501582686	1.863231122879963	0.995955071327415	-0.3848130058876832	1.711178572264649	1.039455355463296	-0.4795630153558169	1.323677879695964	0.255436136733325	-0.4260893477145027	1.469929554150799	0.04759071091144498	-0.4523580754984344	1.395418429778254	0.07895512303719726	-0.3625220443121196	1.788126776889153	0.7579536155982426	-0.3555652639679423	1.86614641194193	0.6631709591982146	-0.4015106168548772	1.764456634736192	0.6079618987971325	-0.3438213140596384	1.601656788992581	0.3727394867454078	-0.356233057398887	1.564401004734981	0.2814553128140535	-0.4202035582082755	1.479363954985693	0.2563440055843904	-0.357844288374648	1.7435952294813	0.5033509208844611	-0.3445508976267557	1.758425150392599	0.4888009178370964	-0.456406249289724	1.378474939014737	0.2019126524957108	-0.3671902675216848	1.392962998072539	0.1925301673384737	-0.4704328383956359	1.789643120019117	0.9005895956409979	-0.4479752005386812	1.754759677425898	0.4889322859270935	-0.4020605639909505	1.812805072768696	1.102288361272151	-0.2795329700736366	1.367737741573208	0.1989276436161607	-0.4284497481304105	1.877005240364249	1.439816613647313	-0.3369647316340295	1.822464897357502	1.494769257739092	-0.6758909797148397	1.856219490580769	1.433986646951469	-0.728664457143648	1.751834149060441	1.454212217581778	-0.7105435665497314	1.699971230482839	1.121164074295446	-0.7656409674574979	1.696843163220653	1.114093241911029	-0.6764631761189999	1.786290769120339	1.387234934332697	-0.7412880272780737	1.72149891955533	1.216864311085741	-0.7421664880848837	1.783899636851999	1.284167485411851	-0.7473871012718027	1.725490438004793	1.028320994798478	-0.7194408735127855	1.766506619993337	0.8617177141969103	-0.728073512020594	1.705008575141552	0.8512582915529879	-0.7284869030453247	1.881428533744001	1.009801425045218	-0.649313483094906	1.717552992249094	1.044305631939983	-0.5722155987591441	1.877628920440451	0.04405262391141364	-0.5690080940008412	2.132128376136119	0.05381920899099175	-0.5486620810793864	2.063217799500684	0.01488869650858507	-0.639996051365324	1.877519579627119	0.7758423147131247	-0.6795716260291249	1.986302334329538	0.7363792343439576	-0.6180024094753207	1.930360726579323	0.6331907071428444	-0.6722202217874189	1.966755010489459	0.3410084146097892	-0.6434416625212872	2.009991122371746	0.255183880295463	-0.5757821710672872	1.979369359353192	0.1726989776253962	-0.6390996613537306	1.962502639652185	0.5324110730654487	-0.6584525059101071	1.970832788402682	0.5377082281871112	-0.5451132028949057	1.957153611497088	0.06023837418009265	-0.6297302276044929	1.967450155702128	0.06674221656183071	-0.5257655964294721	1.800587290863522	0.9089169814318614	-0.6070493915107048	1.970954356189685	0.5336145116700055	-0.5995477192071299	1.702845615112442	1.111655635791011	-0.7152615066062989	1.949053633056776	0.05075269679343619	-0.5687274905745615	1.810942348696327	1.442759488212366	-0.7208045208485366	
